<svg xmlns="http://www.w3.org/2000/svg" viewBox="0 0 512 512">
  <rect width="512" height="512" rx="112" fill="#0f0f13"/>
  <rect width="512" height="512" rx="112" fill="#5b8af0" opacity="0.15"/>
  <path d="M256 120c-74.4 0-136 61.6-136 136s61.6 136 136 136 136-61.6 136-136-61.6-136-136-136zm62.4 93.6l-22.4 105.6c-1.6 7.2-6.4 9.6-12.8 6l-34.4-25.6-16.8 16c-1.6 2.4-3.2 3.2-6.4 3.2l2.4-35.2 63.2-57.2c2.4-2.4-.8-3.2-4-1.6L191.2 284l-33.6-10.4c-7.2-2.4-7.2-7.2 1.6-10.4l130.4-50.4c6.4-1.6 11.2 1.6 11.2 9.6l-2.4 1.2z" fill="#5b8af0"/>
  <path d="M256 120c-74.4 0-136 61.6-136 136s61.6 136 136 136 136-61.6 136-136-61.6-136-136-136zm62.4 93.6l-22.4 105.6c-1.6 7.2-6.4 9.6-12.8 6l-34.4-25.6-16.8 16c-1.6 2.4-3.2 3.2-6.4 3.2l2.4-35.2 63.2-57.2c2.4-2.4-.8-3.2-4-1.6L191.2 284l-33.6-10.4c-7.2-2.4-7.2-7.2 1.6-10.4l130.4-50.4c6.4-1.6 11.2 1.6 11.2 9.6l-2.4 1.2z" fill="white" opacity="0.9"/>
</svg>
